<svg width="294" height="47" viewBox="0 0 294 47" fill="none" xmlns="http://www.w3.org/2000/svg">
<g style="mix-blend-mode:overlay">
<path d="M36.422 36.4217V46H0.179663V1.34423H36.422V10.9226H12.1526V18.8182H36.1632V28.3966H12.1526V36.4217H36.422ZM40.335 46L59.4916 1.34423H70.0408L89.068 46H75.736L73.3414 39.5282H55.8027L53.4081 46H40.335ZM64.6691 15.9706L58.7797 31.6972H70.4938L64.6691 15.9706ZM113.413 46.9708C105.345 46.9708 99.6709 45.7196 96.3918 43.2171C93.1127 40.7147 91.4732 36.508 91.4732 30.597H103.964C104.093 33.3152 104.827 35.192 106.164 36.2275C107.502 37.2199 109.875 37.716 113.283 37.716C116.951 37.716 119.432 37.3709 120.726 36.6805C122.063 35.9471 122.732 34.7821 122.732 33.1857C122.732 31.9345 122.322 31.0716 121.503 30.597C120.683 30.1224 119.367 29.7125 117.555 29.3673L104.158 26.5197C100.016 25.6137 97.0174 24.2114 95.1621 22.313C93.3069 20.4146 92.3793 17.567 92.3793 13.7702C92.3793 4.83903 99.3041 0.373456 113.154 0.373456C120.575 0.373456 125.882 1.55996 129.075 3.93297C132.311 6.26284 134.015 10.3401 134.187 16.1648H122.409C122.236 13.576 121.503 11.8286 120.208 10.9226C118.957 10.0165 116.67 9.56348 113.348 9.56348C109.853 9.56348 107.459 9.90865 106.164 10.599C104.913 11.2893 104.287 12.2601 104.287 13.5113C104.287 14.5468 104.654 15.345 105.388 15.9059C106.164 16.4668 107.502 16.9198 109.4 17.265L121.373 19.6596C126.162 20.6088 129.614 21.9894 131.728 23.8016C133.842 25.6137 134.899 28.4829 134.899 32.4091C134.899 34.8253 134.576 36.8963 133.929 38.6221C133.281 40.3048 132.16 41.8149 130.563 43.1524C129.01 44.4468 126.809 45.396 123.962 46C121.157 46.6472 117.641 46.9708 113.413 46.9708ZM136.336 1.34423H149.927L161.511 21.6011L172.902 1.34423H186.298L167.53 32.0855V46H155.492V32.4091L136.336 1.34423ZM226.26 18.8182V28.3966H202.637V46H190.664V1.34423H226.454V10.9226H202.637V18.8182H226.26ZM245.077 1.34423V46H233.105V1.34423H245.077ZM293.309 1.34423V11.6992H277.712V46H265.674V11.6992H250.077V1.34423H293.309Z" fill="white" fill-opacity="0.4"/>
</g>
</svg>
