<svg width="50" height="31" viewBox="0 0 50 31" fill="none" xmlns="http://www.w3.org/2000/svg">
<path d="M31.5761 3.24023H18.3291V27.0562H31.5761V3.24023Z" fill="#FF5F00"/>
<path d="M19.1706 15.148C19.1706 10.3092 21.4414 6.01711 24.932 3.24011C22.367 1.22021 19.1286 0 15.5962 0C7.22719 0 0.456543 6.77444 0.456543 15.148C0.456543 23.5217 7.22719 30.2961 15.5962 30.2961C19.1286 30.2961 22.367 29.0758 24.932 27.0562C21.4416 24.3208 19.1706 19.9868 19.1706 15.148Z" fill="#EB001B"/>
<path d="M49.4496 15.148C49.4496 23.5217 42.6787 30.2961 34.3101 30.2961C30.7777 30.2961 27.5395 29.0758 24.9741 27.0562C28.5067 24.2792 30.7355 19.987 30.7355 15.1482C30.7355 10.3094 28.4647 6.0173 24.9741 3.24029C27.5395 1.22021 30.7775 0 34.3101 0C42.6787 0 49.4496 6.81661 49.4496 15.148Z" fill="#F79E1B"/>
</svg>
