<svg width="69" height="21" viewBox="0 0 69 21" fill="none" xmlns="http://www.w3.org/2000/svg">
<path fill-rule="evenodd" clip-rule="evenodd" d="M61.1591 0.0458984H48.0835C48.7865 4.51977 53.0044 8.70491 57.6441 8.70491H68.0482C68.1888 8.27189 68.1888 7.69474 68.1888 7.26171C68.1888 3.22086 65.0958 0.0458984 61.1591 0.0458984Z" fill="url(#paint0_linear_94_495)"/>
<path fill-rule="evenodd" clip-rule="evenodd" d="M49.208 9.42725V20.2509H55.5349V14.4783H61.1588C64.252 14.4783 66.9232 12.3136 67.7668 9.42725H49.208Z" fill="#357251"/>
<path fill-rule="evenodd" clip-rule="evenodd" d="M26.7139 0.0458984V20.2502H32.3378C32.3378 20.2502 33.7438 20.2502 34.4468 18.807C38.2428 11.014 39.3677 8.70491 39.3677 8.70491H40.0706V20.2502H46.3975V0.0458984H40.7736C40.7736 0.0458984 39.3677 0.190219 38.6647 1.48906C35.431 8.1276 33.7438 11.5911 33.7438 11.5911H33.0407V0.0458984H26.7139Z" fill="#357251"/>
<path fill-rule="evenodd" clip-rule="evenodd" d="M0 20.2502V0.0458984H6.32685C6.32685 0.0458984 8.15462 0.0458979 9.13879 2.93222C11.6695 10.581 11.9507 11.5911 11.9507 11.5911C11.9507 11.5911 12.5131 9.71508 14.7627 2.93222C15.7468 0.0458979 17.5746 0.0458984 17.5746 0.0458984H23.9015V20.2502H17.5746V9.42651H16.8716L13.3567 20.2502H10.5448L7.02984 9.42651H6.32685V20.2502H0Z" fill="#357251"/>
<defs>
<linearGradient id="paint0_linear_94_495" x1="48.4899" y1="0.0458987" x2="68.6943" y2="10.1481" gradientUnits="userSpaceOnUse">
<stop stop-color="#49A9F6"/>
<stop offset="1" stop-color="#2D5FD0"/>
</linearGradient>
</defs>
</svg>
