<svg width="109" height="27" viewBox="0 0 109 27" fill="none" xmlns="http://www.w3.org/2000/svg">
<path d="M109 7.98159C108.711 7.9248 108.365 7.89668 107.96 7.86829C107.584 7.83989 107.15 7.81149 106.688 7.81149C105.243 7.81149 103.913 7.95405 102.67 8.1818C101.455 8.40956 100.357 8.72222 99.4324 9.09253V25.6858H103.913V11.7685C104.202 11.6543 104.548 11.5691 104.925 11.5123C105.33 11.4555 105.734 11.4271 106.139 11.4271C106.515 11.4271 106.862 11.4555 107.208 11.4839C107.555 11.5407 107.873 11.5981 108.162 11.6833L109 7.98159ZM93.3628 15.0115L85.9344 16.0074C85.9631 14.9258 86.1369 14.0147 86.4837 13.275C86.8308 12.5352 87.2932 11.9945 87.8999 11.6242C88.5068 11.2539 89.2004 11.0554 89.9812 11.0554C90.6748 11.0554 91.2818 11.198 91.7737 11.5109C92.2934 11.7952 92.6698 12.2507 92.9586 12.8203C93.2185 13.3891 93.3628 14.1292 93.3628 15.0115ZM97.6981 15.7797C97.6981 14.5844 97.5252 13.5027 97.2071 12.5352C96.86 11.5674 96.3689 10.7419 95.7327 10.0302C95.0962 9.34725 94.287 8.80655 93.3333 8.43623C92.3795 8.06592 91.3096 7.86743 90.0673 7.86743C88.7667 7.86743 87.6105 8.09518 86.5988 8.52229C85.5868 8.97751 84.72 9.60397 84.0264 10.4005C83.3038 11.1971 82.7832 12.1655 82.4077 13.275C82.0322 14.3851 81.8584 15.6087 81.8584 16.9468C81.8584 18.2847 82.0609 19.5367 82.4364 20.6468C82.8119 21.7572 83.3902 22.7247 84.142 23.5213C84.8932 24.3471 85.818 24.9727 86.9456 25.3998C88.0731 25.8266 89.3447 26.0544 90.8191 26.0544C91.6868 26.0544 92.5246 25.9976 93.3341 25.8834C94.1433 25.7701 94.8945 25.6273 95.5884 25.4279C96.282 25.2286 96.86 25.0295 97.3513 24.7733L96.0795 21.4718C95.6458 21.6995 95.1831 21.8989 94.6347 22.0409C94.0854 22.2118 93.5358 22.3251 92.9291 22.4393C92.3221 22.5245 91.7441 22.5821 91.1366 22.5821C90.2689 22.5821 89.4893 22.4393 88.7954 22.155C88.1018 21.8705 87.5522 21.4434 87.0898 20.8746C86.6561 20.3058 86.3676 19.5941 86.2224 18.7402L97.6399 17.2027C97.6686 16.9468 97.6981 16.6907 97.6981 16.4629C97.6981 16.2636 97.6981 16.0074 97.6981 15.7797ZM80.0083 25.6841V0.240234H75.5281V25.6849L80.0083 25.6841ZM72.7532 25.6841V0.240234H68.2727V25.6849L72.7532 25.6841ZM62.1162 15.0115L54.6878 16.0074C54.7165 14.9258 54.8904 14.0147 55.2372 13.275C55.5839 12.5352 56.0466 11.9945 56.6533 11.6242C57.2603 11.2539 57.9538 11.0554 58.7346 11.0554C59.4282 11.0554 60.0349 11.198 60.5271 11.5109C61.0469 11.7952 61.4232 12.2507 61.7118 12.8203C61.9719 13.3891 62.1162 14.1292 62.1162 15.0115ZM66.4521 15.7797C66.4521 14.5844 66.2786 13.5027 65.961 12.5352C65.6142 11.5674 65.1519 10.7419 64.4867 10.0302C63.8513 9.34725 63.041 8.80655 62.0875 8.43623C61.1338 8.06592 60.0639 7.86743 58.8215 7.86743C57.521 7.86743 56.3647 8.09518 55.3528 8.52229C54.3411 8.97751 53.4742 9.60397 52.7806 10.4005C52.0581 11.1971 51.5375 12.1655 51.1617 13.275C50.7862 14.3851 50.6124 15.6087 50.6124 16.9468C50.6124 18.2847 50.8149 19.5367 51.1907 20.6468C51.5661 21.7572 52.1441 22.7247 52.8962 23.5213C53.6472 24.3471 54.5723 24.9727 55.6995 25.3998C56.8271 25.8266 58.099 26.0544 59.5725 26.0544C60.4393 26.0544 61.2781 25.9976 62.0875 25.8834C62.8967 25.7701 63.6479 25.6273 64.3424 25.4279C65.036 25.2286 65.6143 25.0295 66.134 24.7733L64.8624 21.4718C64.4284 21.6995 63.9661 21.8989 63.4173 22.0409C62.868 22.2118 62.3187 22.3251 61.7118 22.4393C61.1051 22.5245 60.5271 22.5821 59.9193 22.5821C59.0519 22.5821 58.2719 22.4393 57.5784 22.155C56.8845 21.8705 56.3065 21.4434 55.8728 20.8746C55.4391 20.3058 55.1502 19.5941 55.006 18.7402L66.4234 17.2027C66.4521 16.9468 66.4817 16.6907 66.4817 16.4629C66.4521 16.2636 66.4521 16.0074 66.4521 15.7797ZM49.9762 25.4563V21.7847C49.8319 21.8696 49.6294 21.9273 49.3982 21.9557C49.1667 22.0125 48.9355 22.0409 48.7043 22.0409C48.3288 22.0409 47.9821 21.9841 47.6637 21.8696C47.3456 21.7555 47.1144 21.557 46.9414 21.2719C46.7676 20.9873 46.6815 20.617 46.6815 20.1331V11.5092H50.0057V8.20791H46.6815V3.05622L42.2593 4.33668V8.23631H39.9754V11.5376H42.2593V20.446C42.2593 22.2678 42.6643 23.6624 43.5022 24.5731C44.3403 25.4841 45.6122 25.9677 47.3177 25.9677C47.6932 25.9677 48.04 25.9393 48.3871 25.8826C48.7339 25.8544 49.052 25.7976 49.3405 25.7116C49.5712 25.6273 49.8024 25.5424 49.9762 25.4563ZM38.6161 25.6841V8.20934H34.1356V25.6841H38.6161ZM38.9637 3.02955C38.9637 2.57404 38.8481 2.17619 38.6167 1.83427C38.3855 1.46396 38.0969 1.20781 37.6919 0.980059C37.3161 0.752392 36.8824 0.667285 36.3913 0.667285C35.9289 0.667285 35.4949 0.781506 35.0908 0.980059C34.7153 1.17941 34.3972 1.46396 34.1657 1.83427C33.9345 2.20373 33.8189 2.57404 33.8189 3.02955C33.8189 3.48505 33.9345 3.88348 34.1657 4.25322C34.3972 4.62267 34.6858 4.90779 35.0908 5.10657C35.4663 5.30593 35.9 5.41923 36.3913 5.44849C36.8824 5.44849 37.3161 5.3349 37.6919 5.10657C38.0674 4.87882 38.3855 4.59427 38.6167 4.25322C38.8186 3.8829 38.9342 3.48505 38.9637 3.02955ZM31.7083 25.6841V13.7305C31.7083 12.4776 31.4198 11.3964 30.8702 10.5141C30.3209 9.6599 29.4827 8.97693 28.3268 8.52143C27.1992 8.06592 25.7544 7.83817 23.9906 7.83817C22.5457 7.83817 21.2157 7.95262 20.0594 8.18037C18.9034 8.40784 17.8628 8.72078 16.909 9.0911V25.6841H21.3895V11.7952C21.6789 11.681 22.0834 11.5674 22.5457 11.5109C23.0081 11.4257 23.5288 11.3964 24.0488 11.3964C25.0605 11.3964 25.8413 11.6526 26.39 12.1365C26.9106 12.6201 27.1992 13.3318 27.1992 14.2141V25.7125H31.7083V25.6841ZM14.5385 24.8023V8.20934H10.0581V22.0414C9.79813 22.1266 9.45128 22.2408 9.01752 22.2976C8.55504 22.3828 8.06385 22.4112 7.45704 22.4112C6.47389 22.4112 5.72276 22.1834 5.23157 21.7563C4.7109 21.3008 4.48045 20.6179 4.48045 19.6784V8.20848H0V19.5927C0 21.1006 0.289453 22.3251 0.838038 23.2927C1.38743 24.2605 2.22547 24.9434 3.35296 25.3989C4.45173 25.8544 5.83916 26.0819 7.45781 26.0538C8.38276 26.0538 9.30775 25.997 10.1753 25.8826C11.0715 25.7692 11.8808 25.6267 12.632 25.4273C13.3823 25.2862 14.0178 25.0585 14.5385 24.8023Z" fill="black"/>
</svg>
