<svg width="70" height="23" viewBox="0 0 70 23" fill="none" xmlns="http://www.w3.org/2000/svg">
<mask id="mask0_94_2199" style="mask-type:luminance" maskUnits="userSpaceOnUse" x="0" y="0" width="70" height="23">
<path d="M70 0.0200195H0.449707V22.2761H70V0.0200195Z" fill="white"/>
</mask>
<g mask="url(#mask0_94_2199)">
<path fill-rule="evenodd" clip-rule="evenodd" d="M47.7568 0.132517C47.5441 0.0957252 47.3313 0.0589503 47.1192 0.0200195H44.4825C44.4469 0.0284177 44.4112 0.0382068 44.3756 0.047996C44.3034 0.0678526 44.2309 0.0877614 44.1568 0.0962814C42.1743 0.333935 40.3126 0.898214 38.7434 2.17039C36.941 3.63194 36.0708 5.51422 36.3231 7.83094C36.4917 9.37895 37.38 10.543 38.6081 11.4163C39.2256 11.8553 39.8922 12.2269 40.559 12.5984C40.9268 12.8034 41.2945 13.0083 41.6541 13.2247C41.7928 13.3082 41.933 13.3903 42.0735 13.4725C42.589 13.7742 43.1072 14.0772 43.5544 14.4587C44.4196 15.1972 44.3281 16.3792 43.3781 17.0083C42.9402 17.2979 42.4124 17.5229 41.8961 17.6182C39.911 17.9855 37.9942 17.6488 36.1389 16.9104C35.8753 16.8057 35.6145 16.6911 35.3474 16.5736C35.2221 16.5186 35.0951 16.4627 34.9661 16.407C34.6212 18.0034 34.2851 19.5576 33.9491 21.1081C33.9745 21.1237 33.9961 21.138 34.0152 21.1507C34.0493 21.1733 34.0766 21.1914 34.1061 21.2035L34.1237 21.2107C34.2736 21.2717 34.4224 21.3326 34.5761 21.3826C36.9513 22.1529 39.3871 22.4287 41.873 22.1999C43.6535 22.0359 45.3618 21.5949 46.8719 20.6061C49.273 19.0341 50.33 16.8113 49.9733 13.9898C49.7725 12.3948 48.8134 11.2142 47.4977 10.3563C46.8218 9.91536 46.1131 9.52396 45.4039 9.13222C44.9416 8.8768 44.4792 8.62137 44.0256 8.35204C43.5196 8.05211 43.015 7.72557 42.5874 7.32896C41.9683 6.75325 41.9773 5.96403 42.6248 5.41632C43.0034 5.09604 43.4886 4.84305 43.9689 4.71091C45.1495 4.3868 46.3583 4.4847 47.5389 4.74151C48.1341 4.87122 48.7183 5.05066 49.3119 5.23306C49.5783 5.31478 49.8468 5.3972 50.1189 5.47596L50.4778 3.81927L50.4825 3.79737L50.4889 3.76763C50.6904 2.83747 50.8947 1.89419 51.1023 0.936345C50.8928 0.87754 50.6885 0.817466 50.4871 0.758331C50.049 0.629593 49.6258 0.505168 49.197 0.407641C48.7209 0.299213 48.2388 0.215839 47.7568 0.132517ZM64.7474 21.9175H70C70 21.8665 70 21.8158 70.0012 21.7636C69.948 21.5358 69.8934 21.3082 69.839 21.0806C69.7195 20.5823 69.6001 20.0834 69.494 19.5829C68.7394 16.0227 67.9874 12.4625 67.2354 8.90236C66.7838 6.76508 66.3323 4.6278 65.8804 2.49038C65.7886 2.05626 65.6936 1.62263 65.5983 1.18671C65.5413 0.925826 65.4841 0.664126 65.4271 0.401017H60.8157C59.4471 0.401017 58.6529 0.924625 58.1224 2.17265L55.955 7.27645L55.9541 7.27818C54.2284 11.342 52.5029 15.4051 50.7779 19.4684C50.5204 20.0742 50.2658 20.6816 50.0043 21.3053L50.0034 21.3073L49.7428 21.929L50.8587 21.9293C52.4233 21.93 53.9581 21.9309 55.4936 21.9175C55.5927 21.9161 55.7394 21.7586 55.7832 21.6441C56.1077 20.7991 56.4257 19.9501 56.7154 19.0936C56.8119 18.8075 56.9381 18.7034 57.2573 18.7058C59.3635 18.7223 61.4697 18.7288 63.5758 18.702C63.9982 18.6957 64.1192 18.8406 64.1861 19.2142C64.3016 19.8501 64.4384 20.4823 64.5765 21.1199L64.577 21.1222L64.5773 21.1246C64.6344 21.3877 64.6914 21.6518 64.7474 21.9175ZM61.462 6.39594L63.1265 14.2729H58.4959L59.4917 11.5621C60.128 9.83033 60.7611 8.10705 61.3937 6.38325C61.4003 6.38429 61.4067 6.38551 61.4131 6.38672C61.418 6.38759 61.4231 6.38864 61.4279 6.38951C61.4391 6.39177 61.4504 6.39403 61.462 6.39594ZM0.862957 0.40232L3.84833 0.402042C5.83874 0.401763 7.82948 0.401468 9.82067 0.40232C11.2368 0.40232 12.259 1.21442 12.5268 2.59844C13.0475 5.28818 13.5603 7.97977 14.0732 10.6715C14.3071 11.8996 14.5411 13.1277 14.7759 14.3556C14.799 14.4793 14.8249 14.6022 14.8564 14.7517L14.8957 14.939C14.9223 14.8892 14.9462 14.847 14.9676 14.8093C15.008 14.7381 15.0389 14.6836 15.0617 14.6263L15.5875 13.3132C17.2663 9.12127 18.9452 4.92808 20.6155 0.731485C20.716 0.478582 20.8408 0.392148 21.1176 0.394704C22.3441 0.404598 23.5714 0.403659 24.7982 0.40272C25.3033 0.402337 25.8084 0.401955 26.3136 0.40232C26.3822 0.40232 26.4511 0.406146 26.5305 0.41058C26.5804 0.413362 26.6347 0.416386 26.6959 0.418838L26.4137 1.09014C26.2197 1.5519 26.03 2.00366 25.8385 2.45484L24.4305 5.76964C22.196 11.0301 19.9615 16.29 17.7368 21.5553C17.6081 21.8591 17.4511 21.939 17.1395 21.9366C15.4338 21.9225 13.7267 21.9175 12.0208 21.9404C11.6591 21.9455 11.5419 21.8196 11.4583 21.4993C10.9179 19.4203 10.3739 17.3416 9.8299 15.2629C8.91845 11.78 8.00687 8.29657 7.11198 4.80984C6.84936 3.78798 6.3241 3.09028 5.33923 2.66199C3.76089 1.9757 2.12203 1.49403 0.449707 1.10259L0.862957 0.40232ZM27.9337 5.78546C26.7693 11.1577 25.6048 16.5301 24.434 21.9303H24.8987C25.3245 21.9303 25.7504 21.9291 26.1762 21.9277C27.3015 21.9243 28.4268 21.9206 29.5513 21.9418C29.9839 21.9495 30.1319 21.8198 30.2195 21.408C31.2824 16.4406 32.359 11.4757 33.4355 6.51139C33.6419 5.5596 33.8483 4.6078 34.0545 3.65606C34.2004 2.98298 34.3456 2.30991 34.492 1.63178C34.5782 1.23176 34.665 0.829985 34.7524 0.425411H29.0956C28.7082 2.21277 28.3209 3.99906 27.9337 5.78546Z" fill="#1739C3"/>
</g>
</svg>
